<?xml version="1.0" encoding="UTF-8"?>
<svg id="Layer_2" data-name="Layer 2" xmlns="http://www.w3.org/2000/svg" xmlns:xlink="http://www.w3.org/1999/xlink" viewBox="0 0 501.57 113.86">
  <defs>
    <style>
      .cls-1 {
        fill: url(#linear-gradient);
      }

      .cls-2 {
        fill: #4d4d4d;
      }

      .cls-3 {
        fill: url(#linear-gradient-3);
      }

      .cls-4 {
        fill: url(#linear-gradient-4);
      }

      .cls-5 {
        fill: url(#linear-gradient-2);
      }
    </style>
    <linearGradient id="linear-gradient" x1="48.33" y1="9.31" x2="5.3" y2="118.99" gradientUnits="userSpaceOnUse">
      <stop offset="0" stop-color="#8b96e9"/>
      <stop offset="1" stop-color="#bdc3f1"/>
    </linearGradient>
    <linearGradient id="linear-gradient-2" x1="1.15" y1="117.32" x2="87.66" y2="65.77" xlink:href="#linear-gradient"/>
    <linearGradient id="linear-gradient-3" x1="71.75" y1="96.4" x2="104.63" y2="101.7" xlink:href="#linear-gradient"/>
    <linearGradient id="linear-gradient-4" x1="57.7" y1="-2.67" x2="101.18" y2="93.5" gradientUnits="userSpaceOnUse">
      <stop offset="0" stop-color="#bdc3f1"/>
      <stop offset="1" stop-color="#8b96e9"/>
    </linearGradient>
  </defs>
  <g id="Layer_1-2" data-name="Layer 1">
    <g>
      <g>
        <path class="cls-2" d="M191.24,37.08v43.11h-8.64v-3.57c-4.79,3.19-9.39,4.98-15.21,4.98-12.96,0-21.6-9.39-21.6-23.57,.09-13.9,8.26-23.1,22.16-23.1,8.83,0,14.09,.66,23.29,2.16Zm-37,21.22c0,9.39,5.64,15.96,14.28,15.96,4.69,0,9.01-1.41,14.09-5.07v-26.01c-4.51-.66-8.55-1.03-13.52-1.03-10.05,0-14.84,6.76-14.84,16.15Z"/>
        <path class="cls-2" d="M213.55,80.18h-8.55V13.51h8.55V80.18Z"/>
        <path class="cls-2" d="M258.24,80.28c-3.76,.85-6.01,1.32-10.71,1.32-10.33,0-15.59-5.64-15.59-17v-20.57h-9.77v-7.7h9.77V18.76h8.64v17.56h15.03v7.7h-15.03v19.72c0,6.76,2.35,10.14,8.55,10.14,2.54,0,5.17-.28,8.17-.75l.94,7.14Z"/>
        <path class="cls-2" d="M267.99,70.32c6.76,2.82,13.24,4.13,18.22,4.13,5.92,0,10.24-2.07,10.24-6.1,0-4.79-6.57-5.63-14.09-7.23-9.77-1.97-14.74-5.17-14.74-12.49,0-8.64,6.86-13.62,18.03-13.62,6.2,0,13.15,1.5,17.47,3.1l-2.07,6.76c-5.64-1.78-11.65-2.91-15.87-2.91-5.82,0-9.11,2.16-9.11,6.11,0,4.23,4.41,4.98,11.64,6.57,10.43,2.16,16.72,4.51,16.72,12.96,0,9.49-7.7,13.99-18.69,13.99-5.73,0-12.96-1.32-19.63-4.13l1.88-7.14Z"/>
        <path class="cls-2" d="M356.45,52.39v27.8h-8.64v-25.45c0-7.42-4.41-12.02-11.27-12.02-4.41,0-9.2,.47-14.28,1.78v35.69h-8.64V13.51h8.64v23.1c5.54-1.31,11.08-1.69,15.97-1.69,11.18,0,18.22,6.67,18.22,17.47Z"/>
        <path class="cls-2" d="M412.47,37.08v43.11h-8.64v-3.57c-4.79,3.19-9.39,4.98-15.21,4.98-12.96,0-21.6-9.39-21.6-23.57,.09-13.9,8.26-23.1,22.16-23.1,8.83,0,14.09,.66,23.29,2.16Zm-37,21.22c0,9.39,5.64,15.96,14.28,15.96,4.69,0,9.01-1.41,14.09-5.07v-26.01c-4.51-.66-8.55-1.03-13.52-1.03-10.05,0-14.84,6.76-14.84,16.15Z"/>
        <path class="cls-2" d="M451.75,43.56c-6.01,0-11.18,.09-17.19,.75v35.87h-8.55V37.55c7.79-1.41,17.47-2.54,25.73-2.54v8.55Z"/>
        <path class="cls-2" d="M501.57,54.92c0,3-.09,3.85-.47,6.57h-34.56c1.32,7.42,6.86,12.4,15.5,12.4,4.79,0,9.39-.94,15.87-2.44l1.31,6.95c-6.29,1.97-11.46,3.19-17.47,3.19-15.78,0-24.42-10.05-24.42-23.48,0-14.09,9.77-23.29,22.92-23.29,12.4,0,21.22,7.89,21.32,20.1Zm-35.31-.1h27.52c-.19-8.08-5.54-13.15-13.34-13.15s-13.24,5.26-14.18,13.15Z"/>
      </g>
      <g>
        <path class="cls-1" d="M22.94,100.45c.33,5.98,2.1,10.63,3.4,13.38-.41,.02-.84,.03-1.25,.03-4.76,0-9.52-1.34-13.68-4.05C.93,102.99-2.93,89.5,2.35,78.17L31.09,16.56c2.36-5.04,6.06-9.19,10.58-12.07,.46-.28,.92-.57,1.39-.82,2.23,.84,5.04,2.29,7.75,4.78,3.72,3.4,5.47,7.37,6.25,9.39L24.18,88.35c-.93,2.83-1.58,6.21-1.23,12.1Z"/>
        <path class="cls-5" d="M84.05,84.52c-5.33-1.25-14.14,3.97-26.99,13.41l-18.28,11.88c-3.8,2.47-8.08,3.8-12.43,4.02-1.3-2.75-3.07-7.4-3.4-13.38-.35-5.88,.3-9.27,1.23-12.1l24.76-16.1c4.93-3.21,11.29-3.21,16.22,0l18.88,12.27Z"/>
        <path class="cls-3" d="M114.11,88.76c0,8.27-4.1,16.29-11.42,21.05-8.32,5.41-19.04,5.41-27.36,0l-18.28-11.88c12.86-9.44,21.66-14.66,26.99-13.41l5.88,3.83c2.78,1.11,6.12,1.96,12.02,1.98,5.09,0,9.27-1.08,12.14-2.1,.02,.17,.02,.36,.02,.54Z"/>
        <path class="cls-4" d="M114.09,88.22c-2.88,1.03-7.05,2.1-12.14,2.1-5.9-.02-9.24-.87-12.02-1.98L57.05,17.84c-.77-2.02-2.53-5.99-6.25-9.39-2.7-2.48-5.52-3.94-7.75-4.78,4.19-2.37,9-3.67,13.99-3.67,11.13,0,21.27,6.45,25.97,16.56l28.73,61.61c1.52,3.24,2.28,6.67,2.34,10.06Z"/>
      </g>
    </g>
  </g>
</svg>